<?xml version="1.0" standalone="no"?>
<!DOCTYPE svg PUBLIC "-//W3C//DTD SVG 20010904//EN"
 "http://www.w3.org/TR/2001/REC-SVG-20010904/DTD/svg10.dtd">
<svg version="1.0" xmlns="http://www.w3.org/2000/svg"
 width="60.000000pt" height="60.000000pt" viewBox="0 0 60.000000 60.000000"
 preserveAspectRatio="xMidYMid meet">

<g transform="translate(0.000000,60.000000) scale(0.100000,-0.100000)"
fill="#000000" stroke="none">
<path d="M166 520 c-43 -10 -82 -22 -87 -27 -11 -11 47 -283 65 -301 10 -10
23 -10 72 2 53 14 55 15 14 10 -25 -3 -54 -6 -65 -7 -18 -2 -23 13 -51 138
-19 85 -28 144 -22 150 10 12 169 45 180 38 5 -2 8 -13 8 -23 0 -10 5 -22 11
-26 13 -8 3 33 -13 54 -12 14 -12 14 -112 -8z"/>
<path d="M323 528 c-11 -14 -63 -250 -63 -285 0 -19 10 -24 78 -38 42 -9 84
-18 92 -21 8 -2 20 0 26 4 17 10 77 293 66 304 -7 7 -169 48 -188 48 -1 0 -6
-6 -11 -12z m55 -31 c12 3 14 2 4 -4 -7 -6 -10 -18 -6 -29 4 -14 3 -16 -4 -5
-5 7 -14 11 -19 8 -6 -4 -8 5 -5 21 3 15 7 22 9 15 2 -7 12 -9 21 -6z m38
-114 c25 -33 8 -81 -18 -55 -6 6 -17 8 -24 5 -26 -10 -29 28 -3 48 30 23 29
23 45 2z m12 -129 c4 2 8 -8 8 -22 1 -15 -1 -22 -3 -15 -2 7 -12 9 -20 6 -13
-5 -15 -2 -10 11 4 10 7 23 8 29 0 8 2 8 6 -1 2 -6 8 -10 11 -8z"/>
<path d="M125 459 c-4 -11 -4 -23 -1 -26 3 -4 6 -1 6 6 0 8 7 11 15 7 13 -4
14 -2 5 14 -13 25 -17 25 -25 -1z"/>
<path d="M186 378 c-27 -38 -12 -74 20 -47 8 6 17 9 21 5 3 -3 1 -6 -5 -6 -7
0 -12 -5 -12 -12 0 -6 11 -1 25 12 26 25 22 40 -16 61 -14 7 -21 4 -33 -13z"/>
<path d="M80 151 c0 -6 4 -11 8 -11 5 0 9 -7 9 -15 0 -8 -4 -15 -9 -15 -4 0
-8 -4 -8 -10 0 -5 9 -10 21 -10 17 0 20 5 17 32 -2 22 -9 34 -20 36 -10 2 -18
-1 -18 -7z"/>
<path d="M135 151 c-3 -6 1 -11 11 -11 16 0 16 -1 1 -18 -23 -25 -21 -32 7
-32 21 0 24 4 23 32 -2 33 -28 51 -42 29z"/>
<path d="M210 145 c-18 -21 -3 -57 23 -53 11 2 22 8 24 15 3 7 -4 9 -18 6 -16
-4 -20 -2 -17 8 3 8 12 13 22 11 21 -4 21 14 0 22 -21 8 -20 8 -34 -9z"/>
<path d="M281 129 c-6 -18 -11 -33 -11 -33 0 -1 28 -2 63 -2 59 -1 63 1 62 22
-1 52 -55 58 -55 7 l-1 -28 -14 33 c-18 40 -30 41 -44 1z"/>
<path d="M410 125 c0 -27 4 -35 18 -35 18 0 42 18 42 31 0 13 -31 39 -46 39
-9 0 -14 -11 -14 -35z m35 6 c3 -5 1 -12 -5 -16 -5 -3 -10 1 -10 9 0 18 6 21
15 7z"/>
<path d="M481 146 c-8 -9 -8 -16 -2 -20 6 -4 8 -13 4 -21 -3 -10 1 -15 15 -15
29 0 38 21 17 37 -11 7 -13 13 -6 13 7 0 9 5 6 10 -9 14 -20 12 -34 -4z"/>
</g>
</svg>
