<?xml version="1.0" standalone="no"?>
<!DOCTYPE svg PUBLIC "-//W3C//DTD SVG 20010904//EN"
 "http://www.w3.org/TR/2001/REC-SVG-20010904/DTD/svg10.dtd">
<svg version="1.0" xmlns="http://www.w3.org/2000/svg"
 width="60.000000pt" height="60.000000pt" viewBox="0 0 60.000000 60.000000"
 preserveAspectRatio="xMidYMid meet">

<g transform="translate(0.000000,60.000000) scale(0.100000,-0.100000)"
fill="#000000" stroke="none">
<path d="M116 535 c-3 -8 -5 -118 -5 -245 0 -208 1 -230 17 -239 28 -15 338
-12 351 3 7 8 10 95 8 252 l-2 239 -181 3 c-155 2 -183 0 -188 -13z m174 -50
c0 -54 0 -55 -30 -55 -16 0 -30 5 -30 10 0 6 -9 10 -19 10 -22 0 -36 -29 -21
-44 16 -16 12 -23 -12 -22 -14 1 -24 -6 -26 -18 -6 -27 13 -42 33 -26 13 10
15 9 15 -9 0 -17 -6 -21 -35 -21 l-35 0 0 115 0 115 80 0 80 0 0 -55z m188
-62 l3 -113 -41 0 -40 0 0 45 c0 33 4 45 15 45 10 0 15 11 15 35 0 21 -5 35
-13 35 -7 0 -18 9 -25 20 -7 11 -20 20 -29 20 -14 0 -12 -4 6 -17 l24 -16 -22
-9 c-15 -5 -21 -14 -17 -23 4 -11 -2 -15 -19 -15 -24 0 -25 3 -25 55 l0 56 83
-3 82 -3 3 -112z m-88 17 c0 -5 -4 -10 -10 -10 -5 0 -10 5 -10 10 0 6 5 10 10
10 6 0 10 -4 10 -10z m30 -4 c0 -8 -4 -18 -10 -21 -5 -3 -10 3 -10 14 0 12 5
21 10 21 6 0 10 -6 10 -14z m-200 -5 c0 -6 -4 -13 -10 -16 -5 -3 -10 1 -10 9
0 9 5 16 10 16 6 0 10 -4 10 -9z m158 -19 c9 -6 12 -37 10 -118 l-3 -109 -80
0 -80 0 -3 104 c-1 58 0 111 2 118 6 15 132 19 154 5z m-193 -52 c-3 -5 -10
-10 -16 -10 -5 0 -9 5 -9 10 0 6 7 10 16 10 8 0 12 -4 9 -10z m15 -140 c0 -40
4 -70 10 -70 6 0 10 5 10 10 0 6 16 10 35 10 l35 0 0 -55 0 -55 -80 0 -80 0 0
115 0 115 35 0 35 0 0 -70z m275 -45 l0 -110 -82 -3 -83 -3 0 56 c0 42 3 55
15 55 11 0 15 -12 16 -42 2 -30 3 -35 6 -15 5 30 13 33 31 15 10 -10 17 -10
32 0 27 16 28 16 33 -15 3 -22 4 -20 6 11 1 33 -1 37 -16 31 -38 -15 -49 -15
-68 -1 -20 15 -20 15 3 16 15 0 26 7 29 20 4 15 9 17 23 10 28 -15 30 -13 29
28 -2 30 -3 32 -6 10 -2 -16 -8 -28 -12 -28 -16 0 -31 26 -31 53 0 27 2 28 38
25 l37 -3 0 -110z"/>
<path d="M147 497 c-8 -21 8 -39 29 -35 27 5 25 42 -2 46 -12 2 -24 -3 -27
-11z m35 -12 c0 -5 -5 -11 -11 -13 -6 -2 -11 4 -11 13 0 9 5 15 11 13 6 -2 11
-8 11 -13z"/>
<path d="M224 495 c-8 -19 3 -35 26 -35 19 0 30 17 23 38 -6 17 -42 15 -49 -3z
m36 -10 c0 -8 -4 -15 -9 -15 -13 0 -22 16 -14 24 11 11 23 6 23 -9z"/>
<path d="M272 344 c-48 -33 -8 -117 48 -99 47 15 50 82 5 103 -32 15 -26 15
-53 -4z m68 -24 c8 -14 8 -26 0 -40 -19 -35 -80 -20 -80 20 0 40 61 55 80 20z"/>
<path d="M281 321 c-21 -14 -4 -53 22 -49 16 2 22 10 22 28 0 26 -20 36 -44
21z m31 -33 c-10 -10 -15 -10 -22 2 -6 9 -5 17 3 22 18 11 33 -10 19 -24z"/>
<path d="M160 229 c0 -17 4 -28 10 -24 6 3 10 17 10 31 0 13 -4 24 -10 24 -5
0 -10 -14 -10 -31z"/>
<path d="M160 121 c0 -17 5 -31 10 -31 6 0 10 11 10 24 0 14 -4 28 -10 31 -6
4 -10 -7 -10 -24z"/>
<path d="M247 143 c-11 -10 -8 -53 3 -53 6 0 10 14 10 30 0 31 -2 35 -13 23z"/>
</g>
</svg>
