<?xml version="1.0" standalone="no"?>
<!DOCTYPE svg PUBLIC "-//W3C//DTD SVG 20010904//EN"
 "http://www.w3.org/TR/2001/REC-SVG-20010904/DTD/svg10.dtd">
<svg version="1.0" xmlns="http://www.w3.org/2000/svg"
 width="64.000000pt" height="64.000000pt" viewBox="0 0 64.000000 64.000000"
 preserveAspectRatio="xMidYMid meet">

<g transform="translate(0.000000,64.000000) scale(0.100000,-0.100000)"
fill="#000000" stroke="none">
<path d="M290 590 c0 -5 5 -10 10 -10 6 0 10 5 10 10 0 6 -4 10 -10 10 -5 0
-10 -4 -10 -10z"/>
<path d="M320 591 c0 -5 12 -12 28 -15 15 -4 35 -9 45 -12 9 -3 17 -1 17 5 0
5 -17 15 -37 20 -46 13 -53 13 -53 2z"/>
<path d="M517 585 c-9 -8 -17 -20 -19 -26 -3 -9 -10 -8 -26 2 -19 12 -24 11
-39 -3 -15 -16 -15 -19 -1 -35 15 -17 12 -22 -38 -78 -57 -62 -67 -98 -29
-103 13 -1 42 18 80 52 56 50 61 53 78 38 16 -14 19 -14 35 1 14 15 15 20 3
39 -10 16 -11 23 -2 26 20 7 41 33 41 52 0 42 -54 65 -83 35z m61 -32 c2 -17
-4 -26 -23 -35 -36 -16 -53 1 -37 37 15 33 55 31 60 -2z m-33 -102 c-7 -6 -95
80 -95 93 0 6 22 -12 50 -39 27 -27 47 -51 45 -54z m-110 -38 c-56 -51 -75
-62 -75 -45 0 4 23 34 51 65 43 49 54 56 66 45 14 -11 8 -20 -42 -65z"/>
<path d="M230 551 c-45 -14 -84 -39 -116 -73 -54 -57 -69 -95 -69 -178 0 -83
15 -121 69 -178 53 -57 101 -77 186 -77 85 0 133 20 186 77 44 46 65 91 71
152 6 56 -7 119 -22 114 -6 -2 -9 -7 -7 -12 2 -6 6 -22 9 -38 5 -28 5 -28 -47
-28 -39 0 -56 5 -66 18 -12 15 -13 14 -14 -16 0 -65 -52 -122 -110 -122 -53 0
-110 57 -110 110 0 58 57 110 122 110 30 1 31 2 16 14 -13 10 -18 27 -18 66 0
52 0 52 28 47 16 -3 32 -7 38 -9 5 -2 10 2 12 7 7 21 -105 32 -158 16z m60
-64 c0 -53 0 -54 -39 -69 l-39 -16 -37 38 -37 37 29 20 c31 22 78 41 106 42
14 1 17 -8 17 -52z m-108 -138 c-15 -39 -16 -39 -69 -39 -38 0 -53 4 -53 14 0
23 22 80 43 109 l20 29 37 -37 38 -37 -16 -39z m0 -98 l16 -39 -38 -37 -37
-37 -20 29 c-21 29 -43 86 -43 109 0 10 15 14 53 14 53 0 54 0 69 -39z m358
25 c0 -23 -22 -80 -43 -109 l-20 -29 -37 37 -38 37 16 39 c15 39 16 39 69 39
38 0 53 -4 53 -14z m-250 -163 c0 -38 -4 -53 -14 -53 -23 0 -80 22 -109 43
l-29 20 37 37 37 38 39 -16 c39 -15 39 -16 39 -69z m144 -9 c-24 -20 -86 -44
-113 -44 -7 0 -11 20 -11 54 0 52 1 54 38 68 37 15 37 15 75 -21 l38 -36 -27
-21z"/>
<path d="M566 383 c9 -38 20 -57 26 -47 8 13 -11 74 -22 74 -6 0 -8 -12 -4
-27z"/>
<path d="M269 329 c-12 -25 -18 -51 -15 -64 11 -44 81 -44 92 0 6 24 -29 105
-46 105 -5 0 -19 -19 -31 -41z m53 -23 c14 -32 4 -56 -22 -56 -11 0 -23 7 -27
16 -7 18 12 64 27 64 6 0 15 -11 22 -24z"/>
<path d="M580 300 c0 -5 5 -10 10 -10 6 0 10 5 10 10 0 6 -4 10 -10 10 -5 0
-10 -4 -10 -10z"/>
</g>
</svg>
