<?xml version="1.0" standalone="no"?>
<!DOCTYPE svg PUBLIC "-//W3C//DTD SVG 20010904//EN"
 "http://www.w3.org/TR/2001/REC-SVG-20010904/DTD/svg10.dtd">
<svg version="1.0" xmlns="http://www.w3.org/2000/svg"
 width="64.000000pt" height="64.000000pt" viewBox="0 0 64.000000 64.000000"
 preserveAspectRatio="xMidYMid meet">

<g transform="translate(0.000000,64.000000) scale(0.100000,-0.100000)"
fill="#000000" stroke="none">
<path d="M284 565 c-9 -23 5 -35 42 -35 30 0 34 3 34 25 0 22 -4 25 -35 25
-22 0 -38 -6 -41 -15z"/>
<path d="M200 551 c-19 -11 -44 -29 -55 -41 -19 -21 -19 -23 -2 -35 21 -15 22
-34 1 -63 -12 -18 -22 -22 -44 -17 -31 7 -40 -10 -40 -75 0 -65 9 -82 40 -75
22 5 32 1 44 -17 21 -29 20 -48 -1 -63 -17 -12 -17 -14 2 -35 23 -25 87 -60
110 -60 8 0 15 8 16 18 0 13 2 12 9 -5 7 -18 17 -23 45 -23 30 0 35 3 35 24 0
22 -5 25 -40 29 l-40 4 42 -1 c37 -1 43 -4 46 -23 5 -31 28 -29 84 6 56 36 66
50 45 66 -21 15 -21 34 -1 63 12 18 22 22 44 17 31 -7 40 10 40 75 0 65 -9 82
-40 75 -22 -5 -32 -1 -44 17 -21 29 -20 48 1 63 17 12 17 14 -2 35 -22 25 -86
60 -109 60 -8 0 -16 -10 -18 -22 -2 -19 -10 -24 -45 -26 -38 -3 -43 -1 -49 22
-7 31 -26 32 -74 7z m41 -33 c10 -18 8 -24 -7 -35 -27 -20 -43 -16 -50 13 -11
43 36 61 57 22z m203 16 c20 -8 21 -38 2 -53 -11 -9 -20 -10 -35 -1 -24 12
-27 30 -9 48 14 14 20 14 42 6z m-101 -51 c-13 -2 -33 -2 -45 0 -13 2 -3 4 22
4 25 0 35 -2 23 -4z m80 -28 c33 -21 67 -91 67 -137 0 -55 -39 -118 -90 -145
-53 -28 -101 -29 -156 -3 -62 31 -77 59 -77 151 0 82 11 108 56 138 34 22 164
20 200 -4z m-266 -157 c-2 -13 -4 -3 -4 22 0 25 2 35 4 23 2 -13 2 -33 0 -45z
m-22 22 c0 -20 -6 -26 -28 -28 -29 -4 -44 16 -33 44 4 10 15 14 33 12 22 -2
28 -8 28 -28z m430 0 c0 -20 -6 -26 -28 -28 -29 -4 -44 16 -33 44 4 10 15 14
33 12 22 -2 28 -8 28 -28z m-334 -160 c23 -13 25 -33 4 -50 -33 -27 -74 17
-43 48 15 15 15 15 39 2z m225 -16 c11 -43 -36 -61 -57 -22 -10 18 -8 24 7 35
27 20 43 16 50 -13z"/>
<path d="M194 515 c-6 -15 2 -35 14 -35 18 1 32 18 26 33 -8 21 -33 22 -40 2z"/>
<path d="M406 513 c-6 -15 8 -32 25 -33 10 0 20 31 13 41 -9 15 -31 10 -38 -8z"/>
<path d="M208 429 c-21 -20 -38 -43 -38 -50 0 -8 9 0 19 17 20 32 57 64 76 64
5 0 -4 -9 -22 -20 -87 -52 -83 -198 6 -245 38 -19 104 -19 142 0 89 47 93 193
6 245 -18 11 -27 20 -22 20 19 0 56 -32 76 -64 10 -17 19 -25 19 -18 0 7 -15
28 -33 48 -32 36 -35 36 -113 38 -78 1 -79 1 -116 -35z m194 -43 c14 -20 8
-53 -12 -79 l-20 -26 22 -4 c16 -3 13 -5 -10 -6 l-34 -1 26 31 c34 40 34 74
-1 94 -27 15 -27 15 -3 9 14 -4 28 -12 32 -18z m-69 7 c-23 -9 -14 -22 14 -20
40 3 42 -31 3 -68 -44 -42 -40 -58 15 -53 25 2 45 0 45 -4 0 -5 -22 -8 -50 -8
-42 0 -50 3 -50 18 0 10 14 31 30 47 31 30 40 65 17 65 -7 0 -18 -5 -24 -11
-8 -8 -13 -8 -18 1 -9 15 1 40 17 39 10 0 10 -2 1 -6z m-87 -34 c4 -8 9 -8 17
0 19 19 29 12 22 -18 -3 -17 -1 -39 5 -50 8 -16 8 -21 -3 -21 -7 0 -18 5 -24
11 -8 8 -13 8 -17 0 -4 -6 -14 -11 -22 -11 -12 0 -12 4 -4 21 6 11 8 33 5 50
-7 29 7 40 21 18z"/>
<path d="M235 320 c0 -29 2 -35 9 -23 8 15 10 15 20 1 9 -13 11 -8 11 22 0 30
-2 35 -11 22 -10 -14 -12 -14 -20 1 -7 12 -9 6 -9 -23z"/>
<path d="M473 320 c0 -25 2 -35 4 -22 2 12 2 32 0 45 -2 12 -4 2 -4 -23z"/>
<path d="M170 261 c0 -17 74 -91 91 -91 8 0 -1 9 -19 20 -18 11 -41 34 -52 52
-11 18 -20 27 -20 19z"/>
<path d="M448 240 c-9 -16 -32 -39 -50 -50 -18 -11 -28 -20 -21 -20 15 0 71
47 84 72 17 32 5 30 -13 -2z"/>
<path d="M298 163 c12 -2 32 -2 45 0 12 2 2 4 -23 4 -25 0 -35 -2 -22 -4z"/>
<path d="M80 320 c0 -15 7 -20 25 -20 18 0 25 5 25 20 0 15 -7 20 -25 20 -18
0 -25 -5 -25 -20z"/>
<path d="M510 320 c0 -15 7 -20 25 -20 18 0 25 5 25 20 0 15 -7 20 -25 20 -18
0 -25 -5 -25 -20z"/>
<path d="M196 144 c-7 -19 1 -34 19 -34 18 0 28 32 13 42 -19 11 -25 10 -32
-8z"/>
<path d="M412 152 c-17 -12 -4 -44 17 -40 17 4 22 39 6 45 -5 1 -16 -1 -23 -5z"/>
<path d="M96 449 c-15 -26 -16 -33 -5 -40 24 -15 39 -10 51 16 8 19 8 28 -2
40 -18 21 -23 19 -44 -16z"/>
<path d="M505 466 c-18 -13 -18 -17 -6 -40 15 -27 27 -31 50 -17 12 8 11 14
-5 40 -18 28 -22 30 -39 17z"/>
<path d="M91 231 c-12 -8 -11 -14 5 -40 18 -28 22 -30 39 -17 17 12 18 17 7
40 -12 27 -27 32 -51 17z"/>
<path d="M499 214 c-12 -23 -12 -27 6 -40 17 -13 21 -11 39 17 16 26 17 32 5
40 -23 14 -35 10 -50 -17z"/>
</g>
</svg>
