<?xml version="1.0" standalone="no"?>
<!DOCTYPE svg PUBLIC "-//W3C//DTD SVG 20010904//EN"
 "http://www.w3.org/TR/2001/REC-SVG-20010904/DTD/svg10.dtd">
<svg version="1.0" xmlns="http://www.w3.org/2000/svg"
 width="60.000000pt" height="60.000000pt" viewBox="0 0 60.000000 60.000000"
 preserveAspectRatio="xMidYMid meet">

<g transform="translate(0.000000,60.000000) scale(0.100000,-0.100000)"
fill="#000000" stroke="none">
<path d="M463 452 c-22 -3 -23 -7 -23 -104 l0 -101 -23 21 c-23 22 -24 22 -40
4 -16 -17 -13 -21 38 -72 l55 -54 50 49 c53 52 59 65 37 84 -11 8 -18 6 -32
-9 -10 -11 -22 -20 -26 -20 -5 0 -10 46 -11 103 -3 99 -4 102 -25 99z"/>
<path d="M262 397 c-49 -50 -51 -54 -35 -70 16 -16 18 -15 40 5 l23 21 0 -100
c0 -55 3 -102 6 -105 3 -3 14 -4 25 -1 17 5 19 15 19 104 0 55 4 99 8 99 5 0
17 -9 27 -20 14 -15 21 -17 32 -9 7 6 13 17 13 23 0 11 -90 106 -101 106 -2 0
-28 -24 -57 -53z"/>
<path d="M78 384 c-5 -40 6 -53 21 -27 9 17 11 17 25 -2 15 -19 15 -18 16 23
0 23 -4 42 -10 42 -5 0 -10 -7 -10 -15 0 -8 -4 -15 -10 -15 -5 0 -10 7 -10 15
0 31 -18 14 -22 -21z"/>
<path d="M152 384 c2 -22 8 -38 13 -36 15 3 12 65 -3 70 -10 3 -13 -6 -10 -34z"/>
<path d="M34 266 c-16 -41 12 -76 41 -55 6 4 17 4 24 -1 22 -13 41 0 41 26 0
19 -5 24 -24 24 -16 0 -27 -7 -31 -20 -10 -30 -25 -24 -25 10 0 31 -16 41 -26
16z"/>
<path d="M150 247 c0 -7 6 -22 14 -33 14 -18 15 -18 21 -1 7 17 8 17 20 0 13
-17 14 -16 25 11 12 31 5 49 -10 26 -7 -10 -10 -11 -10 -2 0 6 -6 12 -14 12
-8 0 -17 -6 -19 -12 -4 -10 -6 -10 -6 0 -1 16 -21 16 -21 -1z"/>
</g>
</svg>
