<?xml version="1.0" standalone="no"?>
<!DOCTYPE svg PUBLIC "-//W3C//DTD SVG 20010904//EN"
 "http://www.w3.org/TR/2001/REC-SVG-20010904/DTD/svg10.dtd">
<svg version="1.0" xmlns="http://www.w3.org/2000/svg"
 width="64.000000pt" height="64.000000pt" viewBox="0 0 64.000000 64.000000"
 preserveAspectRatio="xMidYMid meet">

<g transform="translate(0.000000,64.000000) scale(0.100000,-0.100000)"
fill="#000000" stroke="none">
<path d="M332 585 c-12 -15 -23 -21 -27 -15 -3 5 -13 10 -20 10 -11 0 -12 -6
-5 -25 8 -21 7 -25 -9 -25 -11 0 -33 14 -49 30 -17 17 -38 30 -46 30 -18 0
-21 -35 -6 -74 11 -29 5 -31 -36 -16 -36 14 -56 -3 -32 -26 14 -14 14 -20 2
-42 -12 -24 -11 -49 3 -92 4 -13 6 -12 18 3 10 14 14 15 18 4 6 -15 -30 -77
-44 -77 -5 0 -9 -7 -9 -15 0 -14 3 -14 30 0 42 22 60 19 60 -9 0 -14 -5 -28
-10 -31 -19 -12 0 -26 20 -15 31 16 33 12 27 -45 -6 -56 4 -70 31 -43 22 22
24 -1 3 -38 -12 -20 -19 -39 -16 -42 8 -9 69 24 108 57 19 17 42 47 51 66 19
39 15 53 -35 117 -15 18 -30 43 -34 56 -8 27 9 29 81 7 53 -16 75 -7 49 19
-11 10 -12 16 -4 16 6 0 17 -7 24 -16 9 -13 18 -15 40 -7 16 5 31 15 33 23 3
9 -1 11 -14 5 -43 -17 -54 -17 -54 -1 0 9 -6 16 -12 17 -7 0 -3 4 10 9 32 13
27 38 -11 56 -35 17 -66 58 -87 117 -16 44 -22 45 -48 12z m-57 -115 c-3 -5
-12 -10 -19 -10 -8 0 -18 -6 -24 -13 -9 -10 -4 -12 22 -9 42 5 56 -14 23 -29
-26 -12 -47 -47 -47 -79 0 -11 -4 -20 -10 -20 -15 0 -12 41 5 74 19 36 13 45
-11 17 -20 -23 -34 -19 -34 9 0 23 55 70 81 70 11 0 17 -4 14 -10z m120 -10
c3 -5 -3 -10 -14 -10 -12 0 -21 5 -21 10 0 6 6 10 14 10 8 0 18 -4 21 -10z"/>
<path d="M512 410 c-12 -10 -19 -21 -14 -24 11 -6 52 21 52 35 0 14 -12 10
-38 -11z"/>
</g>
</svg>
