<?xml version="1.0" standalone="no"?>
<!DOCTYPE svg PUBLIC "-//W3C//DTD SVG 20010904//EN"
 "http://www.w3.org/TR/2001/REC-SVG-20010904/DTD/svg10.dtd">
<svg version="1.0" xmlns="http://www.w3.org/2000/svg"
 width="64.000000pt" height="64.000000pt" viewBox="0 0 64.000000 64.000000"
 preserveAspectRatio="xMidYMid meet">

<g transform="translate(0.000000,64.000000) scale(0.100000,-0.100000)"
fill="#000000" stroke="none">
<path d="M484 627 c-9 -25 0 -62 16 -62 10 0 15 10 15 34 0 36 -21 54 -31 28z"/>
<path d="M565 590 c-23 -24 -26 -33 -17 -42 10 -10 19 -6 43 19 18 17 28 36
25 42 -11 17 -20 14 -51 -19z"/>
<path d="M404 589 c-3 -6 3 -21 15 -32 16 -16 23 -19 33 -9 9 9 7 16 -7 32
-20 23 -31 25 -41 9z"/>
<path d="M470 495 c-27 -29 -42 -31 -60 -10 -17 21 -43 19 -64 -4 -14 -16 -23
-18 -43 -10 -64 24 -166 -2 -227 -59 -40 -38 -76 -118 -76 -172 0 -54 36 -134
76 -172 122 -114 308 -76 380 77 25 52 31 116 15 158 -8 20 -6 29 10 43 23 21
25 47 4 64 -21 17 -19 30 11 61 14 15 23 32 20 38 -11 16 -20 13 -46 -14z
m-215 -114 c0 -8 -18 -20 -40 -28 -50 -17 -71 -38 -88 -88 -18 -52 -42 -54
-41 -3 1 45 39 98 86 121 38 20 83 18 83 -2z"/>
<path d="M565 510 c-11 -18 10 -32 41 -28 40 4 38 32 -3 36 -17 2 -34 -2 -38
-8z"/>
<path d="M544 449 c-3 -6 3 -21 15 -32 16 -16 23 -19 33 -9 9 9 7 16 -7 32
-20 23 -31 25 -41 9z"/>
</g>
</svg>
