<?xml version="1.0" standalone="no"?>
<!DOCTYPE svg PUBLIC "-//W3C//DTD SVG 20010904//EN"
 "http://www.w3.org/TR/2001/REC-SVG-20010904/DTD/svg10.dtd">
<svg version="1.0" xmlns="http://www.w3.org/2000/svg"
 width="60.000000pt" height="60.000000pt" viewBox="0 0 60.000000 60.000000"
 preserveAspectRatio="xMidYMid meet">

<g transform="translate(0.000000,60.000000) scale(0.100000,-0.100000)"
fill="#000000" stroke="none">
<path d="M190 500 c0 -30 -1 -31 -35 -24 -38 7 -46 -4 -58 -76 -4 -21 1 -13
10 18 15 50 18 53 44 48 48 -9 74 -13 62 -9 -7 3 -13 17 -13 33 0 28 2 29 53
33 l52 3 -57 2 -58 2 0 -30z"/>
<path d="M328 513 c12 -2 30 -2 40 0 9 3 -1 5 -23 4 -22 0 -30 -2 -17 -4z"/>
<path d="M373 425 c0 -44 2 -61 4 -37 2 23 2 59 0 80 -2 20 -4 1 -4 -43z"/>
<path d="M260 454 c-24 -13 -24 -14 -3 -14 32 0 36 -14 18 -72 -20 -68 -20
-68 14 -68 23 0 28 4 24 19 -3 13 2 20 18 24 18 5 21 11 15 37 -6 32 -42 91
-54 89 -4 -1 -18 -7 -32 -15z m64 -38 c22 -46 20 -55 -9 -66 -16 -6 -23 -14
-19 -25 4 -10 0 -15 -11 -15 -11 0 -15 6 -11 18 2 9 10 37 17 61 10 35 11 45
1 49 -7 2 -10 8 -6 13 8 14 20 3 38 -35z"/>
<path d="M143 395 c-35 -37 -43 -72 -18 -81 9 -4 14 -13 13 -22 -2 -9 8 -18
25 -23 20 -5 27 -4 27 6 0 8 10 15 21 17 32 4 47 33 31 58 -6 11 -12 28 -12
38 0 22 -19 42 -39 42 -9 0 -31 -16 -48 -35z m75 0 c2 -11 8 -30 14 -42 14
-28 -6 -57 -34 -50 -11 3 -18 0 -18 -9 0 -8 -7 -14 -16 -14 -9 0 -14 6 -11 13
3 7 -4 19 -14 25 -24 16 -25 49 0 57 10 3 21 15 24 26 7 27 50 22 55 -6z"/>
<path d="M432 404 c-42 -29 -18 -104 35 -104 49 0 72 76 31 104 -12 9 -27 16
-33 16 -6 0 -21 -7 -33 -16z m59 -4 c22 -12 26 -59 7 -78 -15 -15 -51 -15 -66
0 -18 18 -15 65 6 77 22 13 29 13 53 1z"/>
<path d="M456 392 c-4 -7 -2 -39 3 -71 1 -2 8 2 16 9 11 9 12 16 4 26 -6 7 -8
18 -5 23 4 5 2 12 -3 15 -5 4 -12 3 -15 -2z"/>
<path d="M65 295 c-9 -36 -15 -71 -12 -78 5 -13 106 -42 114 -33 3 2 -21 10
-51 17 -63 14 -63 15 -40 96 9 30 14 56 11 59 -2 2 -12 -25 -22 -61z"/>
<path d="M361 308 c-2 -50 -10 -58 -57 -58 -39 0 -44 3 -45 23 0 21 -1 21 -8
2 -5 -11 -11 -36 -15 -55 -5 -33 -5 -33 5 -7 9 23 16 27 53 27 37 0 43 -3 53
-30 11 -29 10 -30 -13 -24 -25 6 -64 -18 -64 -40 0 -6 7 0 16 12 8 12 25 22
36 22 20 0 21 -1 3 -20 -15 -16 -16 -22 -5 -35 11 -13 10 -14 -4 -9 -9 3 -16
1 -16 -5 0 -6 9 -11 21 -11 18 0 20 4 15 26 -5 19 -4 24 5 18 9 -5 10 -2 6 10
-5 12 -3 16 5 14 7 -3 14 -19 16 -36 2 -23 -2 -33 -18 -42 -27 -14 -59 -4 -71
23 -8 19 -9 20 -6 2 1 -10 14 -26 28 -34 24 -13 29 -13 53 2 28 19 36 63 14
86 -11 10 -8 11 14 6 14 -4 35 -2 46 4 15 8 23 7 32 -4 30 -36 90 -3 90 48 0
36 -42 64 -73 50 -17 -8 -28 -7 -42 4 -11 8 -30 12 -42 10 -17 -3 -23 1 -26
22 l-4 26 -2 -27z m73 -44 c21 -20 20 -43 -1 -66 -20 -22 -41 -23 -65 -1 -22
20 -23 41 -1 65 20 22 46 23 67 2z m90 -10 c32 -31 14 -84 -29 -84 -31 0 -45
19 -38 54 9 47 38 60 67 30z"/>
<path d="M384 256 c-4 -9 -1 -22 5 -30 6 -7 8 -16 4 -19 -3 -4 1 -7 10 -7 23
0 29 16 12 30 -8 7 -13 16 -10 20 3 5 1 11 -5 15 -6 3 -13 -1 -16 -9z"/>
<path d="M485 240 c-4 -6 -1 -18 6 -26 10 -12 9 -13 -5 -8 -9 3 -16 1 -16 -5
0 -6 9 -11 21 -11 16 0 19 4 14 20 -4 11 -2 20 4 20 6 0 11 5 11 10 0 13 -27
13 -35 0z"/>
<path d="M195 170 c26 -11 35 -12 35 -2 0 4 -12 8 -27 9 -24 1 -25 1 -8 -7z"/>
</g>
</svg>
