<?xml version="1.0" standalone="no"?>
<!DOCTYPE svg PUBLIC "-//W3C//DTD SVG 20010904//EN"
 "http://www.w3.org/TR/2001/REC-SVG-20010904/DTD/svg10.dtd">
<svg version="1.0" xmlns="http://www.w3.org/2000/svg"
 width="60.000000pt" height="60.000000pt" viewBox="0 0 60.000000 60.000000"
 preserveAspectRatio="xMidYMid meet">

<g transform="translate(0.000000,60.000000) scale(0.100000,-0.100000)"
fill="#000000" stroke="none">
<path d="M248 526 c-105 -37 -128 -84 -128 -257 -1 -127 -6 -148 -43 -162 -10
-4 -17 -13 -15 -20 4 -9 62 -13 236 -15 227 -2 232 -2 232 18 0 11 -7 20 -15
20 -26 0 -35 38 -35 155 0 123 -11 169 -53 213 -46 50 -120 69 -179 48z m140
-33 c15 -11 37 -35 50 -53 20 -30 22 -44 22 -167 l0 -134 -27 3 c-26 3 -28 7
-31 51 -3 42 -5 47 -28 47 -22 0 -24 4 -24 45 l0 45 -55 0 -55 0 0 -45 c0 -38
-3 -45 -19 -45 -17 0 -20 -8 -23 -47 -3 -46 -4 -48 -33 -48 l-30 0 -3 95 c-4
125 10 188 51 228 18 17 43 36 57 41 37 16 117 7 148 -16z m-48 -213 l0 -40
-40 0 -40 0 0 40 0 40 40 0 40 0 0 -40z m-50 -101 l0 -40 -37 3 c-36 3 -38 5
-41 41 l-3 37 40 0 41 0 0 -41z m90 1 c0 -39 -1 -40 -35 -40 -34 0 -35 1 -35
40 0 39 1 40 35 40 34 0 35 -1 35 -40z m95 -60 c-8 -14 -355 -14 -355 0 0 6
67 10 181 10 117 0 178 -3 174 -10z m35 -30 c0 -6 -78 -10 -215 -10 -137 0
-215 4 -215 10 0 6 78 10 215 10 137 0 215 -4 215 -10z"/>
<path d="M325 487 c70 -28 105 -67 105 -117 0 -11 5 -20 10 -20 15 0 12 20
-10 67 -21 47 -70 83 -110 82 -24 0 -24 -1 5 -12z"/>
<path d="M150 215 c0 -30 5 -55 10 -55 6 0 10 25 10 55 0 30 -4 55 -10 55 -5
0 -10 -25 -10 -55z"/>
<path d="M277 286 c-8 -19 15 -37 32 -26 17 10 7 40 -13 40 -7 0 -16 -6 -19
-14z"/>
<path d="M320 200 c0 -5 5 -10 10 -10 6 0 10 5 10 10 0 6 -4 10 -10 10 -5 0
-10 -4 -10 -10z"/>
<path d="M350 200 c0 -5 5 -10 10 -10 6 0 10 5 10 10 0 6 -4 10 -10 10 -5 0
-10 -4 -10 -10z"/>
<path d="M320 170 c0 -5 5 -10 10 -10 6 0 10 5 10 10 0 6 -4 10 -10 10 -5 0
-10 -4 -10 -10z"/>
<path d="M355 170 c-3 -5 -1 -10 4 -10 6 0 11 5 11 10 0 6 -2 10 -4 10 -3 0
-8 -4 -11 -10z"/>
</g>
</svg>
